<?xml version="1.0" encoding="utf-8"?>
<!-- Generator: Adobe Illustrator 16.0.0, SVG Export Plug-In . SVG Version: 6.00 Build 0)  -->
<!DOCTYPE svg PUBLIC "-//W3C//DTD SVG 1.1//EN" "http://www.w3.org/Graphics/SVG/1.1/DTD/svg11.dtd">
<svg version="1.1" id="Layer_1" xmlns="http://www.w3.org/2000/svg" xmlns:xlink="http://www.w3.org/1999/xlink" x="0px" y="0px"
	 width="612px" height="792px" viewBox="0 0 612 792" enable-background="new 0 0 612 792" xml:space="preserve">
<title>icon_meal_new</title>
<path fill="#FF6F00" d="M200.512,127.969h-68.577c-2.587,0-5.058,1.191-6.876,3.323L8.349,267.35
	c-1.828,2.121-2.849,5.002-2.849,8.017v79.369c0,16.712,7.878,31.18,19.452,39.049v289.761c0,6.271,4.348,11.339,9.726,11.339
	h544.646c5.379,0,9.727-5.067,9.727-11.339V393.784c11.572-7.869,19.451-22.337,19.451-39.049v-79.369
	c0-3.016-1.021-5.897-2.85-8.016l-116.71-136.059c-1.819-2.132-4.29-3.323-6.877-3.323h-68.577 M409.84,150.645h68.197
	l97.258,113.382H38.704l97.258-113.382h68.198 M24.952,354.736v-68.03h38.903v68.03c0,12.505-8.724,22.677-19.452,22.677
	S24.952,367.241,24.952,354.736z M83.307,286.705h38.903v68.03c0,12.506-8.724,22.676-19.452,22.676
	c-10.728,0-19.451-10.17-19.451-22.676V286.705z M141.661,286.705h38.903v68.03c0,12.506-8.724,22.676-19.452,22.676
	s-19.452-10.17-19.452-22.676L141.661,286.705L141.661,286.705z M200.016,286.705h38.903v68.03c0,12.506-8.724,22.676-19.452,22.676
	c-10.728,0-19.452-10.17-19.452-22.676L200.016,286.705L200.016,286.705z M258.371,286.705h38.903v68.03
	c0,12.506-8.724,22.676-19.452,22.676c-10.729,0-19.451-10.17-19.451-22.676V286.705z M316.727,286.705h38.902v68.03
	c0,12.506-8.724,22.676-19.451,22.676c-10.729,0-19.451-10.17-19.451-22.676V286.705L316.727,286.705z M375.08,286.705h38.903v68.03
	c0,12.506-8.725,22.676-19.451,22.676c-10.728,0-19.452-10.17-19.452-22.676V286.705z M433.436,286.705h38.903v68.03
	c0,12.506-8.724,22.676-19.452,22.676c-10.728,0-19.451-10.17-19.451-22.676V286.705z M491.79,286.705h38.903v68.03
	c0,12.506-8.725,22.676-19.451,22.676c-10.729,0-19.452-10.17-19.452-22.676V286.705z M219.468,672.208H83.307V524.81
	c0-43.755,30.548-79.369,68.081-79.369c37.532,0,68.081,35.614,68.081,79.369L219.468,672.208L219.468,672.208z M569.597,672.208
	H238.919V524.81c0-56.273-39.263-102.044-87.532-102.044c-48.27,0-87.532,45.772-87.532,102.044v147.398H44.403V400.087
	c11.681,0,22.039-6.144,29.177-15.669c7.139,9.526,17.497,15.669,29.177,15.669c11.681,0,22.039-6.144,29.178-15.669
	c7.139,9.526,17.497,15.669,29.177,15.669c11.68,0,22.039-6.144,29.177-15.669c7.139,9.526,17.497,15.669,29.178,15.669
	c11.68,0,22.039-6.144,29.177-15.669c7.139,9.526,17.498,15.669,29.177,15.669c11.68,0,22.039-6.144,29.178-15.669
	c7.14,9.526,17.497,15.669,29.178,15.669s22.038-6.144,29.177-15.669c7.141,9.526,17.498,15.669,29.179,15.669
	c11.68,0,22.038-6.144,29.178-15.669c7.139,9.526,17.497,15.669,29.177,15.669c11.682,0,22.039-6.144,29.179-15.669
	c7.139,9.526,17.495,15.669,29.178,15.669c11.681,0,22.038-6.144,29.177-15.669c7.141,9.526,17.497,15.669,29.178,15.669
	L569.597,672.208L569.597,672.208z M569.597,377.413c-10.728,0-19.45-10.171-19.45-22.677v-68.03h38.902v68.03
	C589.049,367.241,580.324,377.413,569.597,377.413z"/>
<path fill="#FF6F00" d="M327.648,469.236c-3.619,0-6.547,3.412-6.547,7.633v137.398c0,4.22,2.928,7.633,6.547,7.633h170.237
	c3.622,0,6.548-3.413,6.548-7.633V476.869c0-4.221-2.926-7.633-6.548-7.633H327.648z M491.34,484.504v76.332H334.196v-76.332H491.34
	L491.34,484.504z M334.196,606.634v-30.531H491.34v30.531H334.196z"/>
<path fill="#FF6F00" d="M150.171,547.487c-26.814,0-48.629,25.43-48.629,56.691v45.352c0,6.27,4.348,11.34,9.726,11.34h77.807
	c5.378,0,9.726-5.07,9.726-11.34v-45.352C198.8,572.918,176.985,547.487,150.171,547.487z M177.559,592.84h-17.662v-20.591
	C168.135,575.673,174.622,583.234,177.559,592.84z M140.445,572.248v20.59h-17.662C125.721,583.234,132.208,575.673,140.445,572.248
	z M120.994,615.516h19.451v22.676h-19.451V615.516z M159.897,638.191v-22.676h19.452v22.676H159.897z"/>
<path fill="#FF6F00" d="M203.691,587.202h9.67v11.276h-9.67V587.202z"/>
<rect x="360.006" y="516.265" transform="matrix(1.397888e-004 -1 1 1.397888e-004 -110.4498 935.1617)" fill="#FF6F00" width="104.83" height="13.098"/>
<polygon fill="#FF6F00" points="68.794,269.588 190.215,127.836 203.829,143.685 82.408,285.437 "/>
<polygon fill="#FF6F00" points="125.295,273.088 246.716,131.335 260.33,147.185 138.909,288.937 "/>
<polygon fill="#FF6F00" points="184.296,273.674 305.717,131.921 319.331,147.771 197.911,289.522 "/>
<polygon fill="#FF6F00" points="240.798,273.093 362.219,131.341 375.832,147.189 254.412,288.942 "/>
<polygon fill="#FF6F00" points="300.299,273.678 421.72,131.927 435.334,147.774 313.913,289.527 "/>
<polygon fill="#FF6F00" points="353.3,273.098 474.721,131.346 488.334,147.193 366.914,288.945 "/>
<polygon fill="#FF6F00" points="415.302,274.339 510.146,163.615 523.759,179.463 428.915,290.188 "/>
<polygon fill="#FF6F00" points="470.302,280.171 539.162,199.779 552.775,215.627 483.915,296.019 "/>
<polygon fill="#FF6F00" points="535.801,269.73 565.209,235.397 578.823,251.247 549.415,285.579 "/>
<rect x="-569.813" y="-184" display="none" fill="#FF6F00" width="671.355" height="97.844"/>
</svg>
