<?xml version="1.0" encoding="utf-8"?>
<!-- Generator: Adobe Illustrator 16.0.0, SVG Export Plug-In . SVG Version: 6.00 Build 0)  -->
<!DOCTYPE svg PUBLIC "-//W3C//DTD SVG 1.1//EN" "http://www.w3.org/Graphics/SVG/1.1/DTD/svg11.dtd">
<svg version="1.1" id="Layer_1" xmlns="http://www.w3.org/2000/svg" xmlns:xlink="http://www.w3.org/1999/xlink" x="0px" y="0px"
	 width="612px" height="792px" viewBox="0 0 612 792" enable-background="new 0 0 612 792" xml:space="preserve">
<g>
	<g>
		<g>
			<path fill="#FF6F00" d="M574.428,428.168V302.259c0-16.018-13.035-29.055-29.055-29.055h-19.371
				c-7.469,0-14.219,2.916-19.371,7.555c-5.152-4.649-11.902-7.555-19.369-7.555h-19.371c-7.469,0-14.219,2.916-19.371,7.555
				c-5.151-4.649-11.901-7.555-19.37-7.555H409.78c-16.021,0-29.058,13.037-29.058,29.055v124.28
				c-22.342-15.486-54.953-28.668-102.702-34.244l15.255-106.791c0.184-1.289,0.28-2.596,0.28-3.903
				c0-15.313-12.455-27.768-27.768-27.768h-88.455v-87.167c0-5.337,4.349-9.686,9.686-9.686H264.5
				c16.019,0,29.055-13.036,29.055-29.055c0-16.019-13.036-29.056-29.055-29.056h-87.167c-32.049,0-58.111,26.063-58.111,58.111
				v96.853H30.768C15.456,253.834,3,266.289,3,281.602c0,1.307,0.097,2.614,0.281,3.932l23.342,163.371
				C3.601,476.322,3,503.363,3,505.648c0,16.892,10.925,31.13,26.023,36.426c-4.192,6.189-6.654,13.656-6.654,21.687
				c0,10.325,4.118,19.651,10.723,26.606C15.175,600.274,3,619.354,3,641.243c0,32.048,26.063,58.108,58.111,58.108h290.557h19.371
				h232.443V495.966v-9.686v-29.059C603.482,441.205,590.447,428.168,574.428,428.168z M516.316,302.259
				c0-5.336,4.35-9.685,9.686-9.685h19.371c5.336,0,9.684,4.349,9.684,9.685v125.909h-38.739L516.316,302.259L516.316,302.259z
				 M458.205,302.259c0-5.336,4.348-9.685,9.686-9.685h19.371c5.336,0,9.685,4.349,9.685,9.685v125.909h-38.74L458.205,302.259
				L458.205,302.259z M400.094,302.259c0-5.336,4.349-9.685,9.687-9.685h19.369c5.338,0,9.688,4.349,9.688,9.685v125.909h-38.742
				L400.094,302.259L400.094,302.259z M245.13,118.24h19.371c5.336,0,9.685,4.349,9.685,9.686c0,5.337-4.349,9.685-9.685,9.685
				H245.13V118.24z M206.39,118.24h19.37v19.371h-19.37V118.24z M138.593,156.981c0-21.366,17.375-38.741,38.741-38.741h9.686
				v19.371c-16.021,0-29.056,13.037-29.056,29.056v87.167h-19.371V156.981z M23.853,292.574l-1.395-9.752
				c-0.059-0.407-0.088-0.814-0.088-1.221c0-4.63,3.768-8.397,8.398-8.397h88.455h58.111h88.455c4.63,0,8.397,3.767,8.397,8.397
				c0,0.406-0.029,0.813-0.077,1.191l-1.405,9.782H245.13v19.37h24.803l-5.529,38.741H32.152l-5.529-38.741H225.76v-19.37H23.853z
				 M261.644,370.057l-2.925,20.493c-10.373-0.717-21.298-1.122-32.958-1.122h-19.37c-84.397,0-133.695,19.649-162.586,42.797
				l-8.882-62.168H261.644z M22.37,505.648c0-0.969,2.103-96.853,184.021-96.853h19.37c180.658,0,183.97,92.958,184.02,96.853
				c0,10.684-8.688,19.371-19.371,19.371h-9.687h-9.684H61.111h-19.37C31.058,525.021,22.37,516.332,22.37,505.648z M61.111,583.132
				c-10.682,0-19.37-8.688-19.37-19.371s8.688-19.372,19.37-19.372h309.928c10.682,0,19.369,8.688,19.369,19.372
				s-8.688,19.371-19.369,19.371H61.111z M330.613,602.501l-39.739,46.364l-105.985-46.364H330.613z M371.039,679.983h-19.371
				H61.111c-21.365,0-38.741-17.376-38.741-38.74c0-21.366,17.376-38.742,38.741-38.742h75.458l159.67,69.86l59.884-69.86h14.916
				c21.365,0,38.74,17.376,38.74,38.742C409.779,662.607,392.404,679.983,371.039,679.983z M399.068,590.367
				c6.594-6.955,10.711-16.281,10.711-26.606c0-7.091-2.054-13.646-5.386-19.372h140.979v96.854H429.148
				c0-6.799-1.238-13.299-3.39-19.371h61.502v-19.371h-73.026C409.896,597.668,404.791,593.532,399.068,590.367z M584.113,486.28
				h-19.371v19.368h19.371v174.335H414.234c5.026-5.599,8.969-12.146,11.524-19.371h138.982V525.021H423.766
				c3.33-5.726,5.384-12.281,5.384-19.372h116.225V486.28H425.867c-3.148-10.772-9.365-24.747-21.492-38.743h170.053
				c5.336,0,9.687,4.34,9.687,9.686L584.113,486.28L584.113,486.28z"/>
			<rect x="506.631" y="602.501" fill="#FF6F00" width="19.371" height="19.371"/>
			<rect x="128.908" y="428.168" fill="#FF6F00" width="19.37" height="19.369"/>
			<rect x="167.648" y="447.537" fill="#FF6F00" width="19.372" height="19.371"/>
			<rect x="206.39" y="428.168" fill="#FF6F00" width="19.37" height="19.369"/>
			<rect x="264.501" y="457.223" fill="#FF6F00" width="19.37" height="19.371"/>
			<rect x="312.928" y="428.168" fill="#FF6F00" width="19.369" height="19.369"/>
			<rect x="70.796" y="466.908" fill="#FF6F00" width="19.371" height="19.372"/>
		</g>
	</g>
</g>
<rect x="-3.381" display="none" fill="#FF6F00" width="671.355" height="97.844"/>
</svg>
