<?xml version="1.0" encoding="utf-8"?>
<!-- Generator: Adobe Illustrator 16.0.0, SVG Export Plug-In . SVG Version: 6.00 Build 0)  -->
<!DOCTYPE svg PUBLIC "-//W3C//DTD SVG 1.1//EN" "http://www.w3.org/Graphics/SVG/1.1/DTD/svg11.dtd">
<svg version="1.1" id="Layer_1" xmlns="http://www.w3.org/2000/svg" xmlns:xlink="http://www.w3.org/1999/xlink" x="0px" y="0px"
	 width="612px" height="792px" viewBox="0 0 612 792" enable-background="new 0 0 612 792" xml:space="preserve">
<g>
	<g>
		<g>
			<path fill="#FF6F00" d="M434.109,466.351c-5.375-4.813-13.629-4.343-18.416,1.018c-27.207,30.401-66.436,47.825-107.662,47.825
				c-41.214,0-80.458-17.424-107.664-47.825c-4.813-5.36-13.042-5.83-18.416-1.018c-5.374,4.8-5.817,13.043-1.018,18.416
				c32.149,35.918,78.475,56.512,127.097,56.512c48.633,0,94.959-20.606,127.096-56.512
				C439.926,479.394,439.469,471.15,434.109,466.351z"/>
			<path fill="#FF6F00" d="M308.031,97.845c-165.402,0-299.971,134.569-299.971,299.97c0,165.4,134.569,299.97,299.971,299.97
				c165.4,0,299.969-134.569,299.969-299.97C608,232.414,473.432,97.845,308.031,97.845z M308.031,671.7
				c-151.029,0-273.886-122.857-273.886-273.886s122.857-273.885,273.886-273.885c151.027,0,273.885,122.857,273.885,273.885
				S459.059,671.7,308.031,671.7z"/>
			<path fill="#FF6F00" d="M412.367,306.52c-35.957,0-65.211,29.253-65.211,65.211c0,7.199,5.844,13.042,13.043,13.042
				s13.041-5.843,13.041-13.042c0-21.572,17.555-39.127,39.127-39.127s39.127,17.555,39.127,39.127
				c0,7.199,5.842,13.042,13.043,13.042c7.199,0,13.041-5.843,13.041-13.042C477.578,335.773,448.324,306.52,412.367,306.52z"/>
			<path fill="#FF6F00" d="M242.82,371.73c0,7.199,5.842,13.042,13.042,13.042c7.199,0,13.042-5.843,13.042-13.042
				c0-35.958-29.253-65.211-65.211-65.211c-35.957,0-65.211,29.253-65.211,65.211c0,7.199,5.843,13.042,13.042,13.042
				s13.042-5.843,13.042-13.042c0-21.572,17.555-39.127,39.126-39.127S242.82,350.159,242.82,371.73z"/>
		</g>
	</g>
</g>
</svg>
